<?xml version="1.0" encoding="UTF-8" standalone="no"?>
<svg
   xmlns:dc="http://purl.org/dc/elements/1.1/"
   xmlns:cc="http://creativecommons.org/ns#"
   xmlns:rdf="http://www.w3.org/1999/02/22-rdf-syntax-ns#"
   xmlns:svg="http://www.w3.org/2000/svg"
   xmlns="http://www.w3.org/2000/svg"
   xmlns:sodipodi="http://sodipodi.sourceforge.net/DTD/sodipodi-0.dtd"
   xmlns:inkscape="http://www.inkscape.org/namespaces/inkscape"
   viewBox="0 0 70 70"
   height="70"
   width="70"
   xml:space="preserve"
   id="svg2"
   version="1.1"
   sodipodi:docname="logo_icon.svg"
   inkscape:version="0.92.2 (5c3e80d, 2017-08-06)"><sodipodi:namedview
     pagecolor="#ffffff"
     bordercolor="#666666"
     borderopacity="1"
     objecttolerance="10"
     gridtolerance="10"
     guidetolerance="10"
     inkscape:pageopacity="0"
     inkscape:pageshadow="2"
     inkscape:window-width="1001"
     inkscape:window-height="655"
     id="namedview27"
     showgrid="false"
     inkscape:zoom="4.0607971"
     inkscape:cx="28.490532"
     inkscape:cy="38.748533"
     inkscape:window-x="295"
     inkscape:window-y="284"
     inkscape:window-maximized="0"
     inkscape:current-layer="svg2" /><metadata
     id="metadata8"><rdf:RDF><cc:Work
         rdf:about=""><dc:format>image/svg+xml</dc:format><dc:type
           rdf:resource="http://purl.org/dc/dcmitype/StillImage" /><dc:title></dc:title></cc:Work></rdf:RDF></metadata><defs
     id="defs6" /><g
     id="g4571"
     transform="matrix(5.6227145,0,0,5.6227145,-9.8126781,7.6657532)"><path
       inkscape:connector-curvature="0"
       d="m 3.528404,7.7589917 c 2.0194933,0 4.8130911,1.1371452 6.840129,1.1371452 1.446426,0 2.857884,-0.3860357 3.661263,-0.9544502 0.05616,-0.3337662 0.08584,-0.6765678 0.08584,-1.0262362 0,-3.394133 -2.751538,-6.14571637 -6.1456709,-6.14571637 -3.3941782,0 -6.1456712,2.75158337 -6.1456712,6.14571637 0,0.3456928 0.029004,0.6845188 0.083848,1.0146709 0.2215019,-0.041021 0.9746895,-0.1711297 1.620266,-0.1711297"
       style="fill:#ffffff;fill-opacity:1;fill-rule:nonzero;stroke:none;stroke-width:0.00451768"
       id="path46" /><path
       inkscape:connector-curvature="0"
       d="M 11.940234,5.4945046 12.18324,5.595294 12.722109,5.219423 Z"
       style="fill:#f9ae0c;fill-opacity:1;fill-rule:nonzero;stroke:none;stroke-width:0.00451768"
       id="path48" /><path
       inkscape:connector-curvature="0"
       d="M 2.8853574,5.0747669 2.2466478,4.8500575 2.2786778,4.7717665 2.998028,5.0116102 3.001098,5.0098902 3.096014,4.9560392 3.133917,4.9323212 2.3495154,4.5986486 2.38263,4.5166076 4.1334117,5.2247539 4.1911928,5.200765 2.4548225,4.3546487 2.493539,4.2750924 4.3335449,5.1314638 4.3589794,5.1185433 2.5748572,4.1066281 2.6114956,4.0305956 5.1879285,5.4324768 C 5.2089809,5.3934893 5.2531638,5.3224713 5.2758426,5.2842066 4.2963192,4.3632775 3.351085,3.6718014 3.351085,3.6718014 c 0,0 0.9721144,0.6509977 2.1718295,1.2561861 0.03962,-0.049423 0.072102,-0.089134 0.1144328,-0.1360725 L 3.4394057,2.8569023 3.4984517,2.7963202 5.2724092,4.308207 3.6289223,2.662371 3.690408,2.5986717 5.5356092,4.3819355 3.8179873,2.4755649 3.8836743,2.416293 5.4711871,4.1162508 4.0222316,2.2905659 4.0846659,2.2338239 5.9419745,4.4940643 c 0.048023,-0.041427 0.087869,-0.072599 0.1381507,-0.1110897 -0.5618187,-1.2157529 -1.17541,-2.2047634 -1.17541,-2.2047634 0,0 0.6530306,0.961272 1.5341589,1.9679466 0.05376,-0.030268 0.1083792,-0.059362 0.1640822,-0.086649 l -0.00931,-0.0061 L 5.2919707,1.4557438 5.3694037,1.4216805 6.447774,3.4880222 5.5405335,1.3463256 5.6214451,1.3103649 6.6642612,3.6549505 5.7857983,1.243955 5.8688784,1.2136414 6.7040619,3.384477 6.0444807,1.148903 l 0.07915,-0.029184 0.8683433,2.7728165 -0.00167,0.00727 0.00212,-8.583e-4 C 7.0501614,3.8796147 7.1089364,3.8624927 7.1679373,3.8464097 7.1018437,2.5145977 6.9048276,1.3753291 6.9048276,1.3753291 c 0,0 0.2439548,1.1292393 0.6813565,2.3883619 0.060944,-0.0075 0.1222033,-0.013824 0.1840503,-0.018026 l -0.00194,-0.00289 h 0.00759 l -0.00438,-0.00632 -0.2337448,-2.89614911 0.084481,-0.002665 0.2257937,2.31996421 -0.038807,-2.32565649 0.088411,-0.002982 0.088592,2.56450619 0.088592,-2.56455137 0.088501,0.003027 -0.038852,2.32565657 0.2258388,-2.31987393 0.084435,0.002575 -0.2337448,2.89614913 -0.00443,0.00632 h 0.00131 l -6.776e-4,9.487e-4 h 0.00384 c 0.060492,0.00379 0.1203962,0.00985 0.1799392,0.016987 0.436767,-1.2579044 0.6803151,-2.3853818 0.6803151,-2.3853818 0,0 -0.1964287,1.1358803 -0.2627934,2.4652528 0.059633,0.015767 0.1186342,0.033024 0.1767768,0.052089 l 0.8652261,-2.7631035 0.079285,0.029184 -0.6597168,2.2355739 0.8352743,-2.1708356 0.08303,0.030359 -0.8785085,2.4109503 1.0427715,-2.3446307 0.081,0.035961 -0.9073315,2.1417417 1.0784605,-2.0663416 0.07734,0.034018 -1.296981,2.5884499 0.00221,9.036e-4 c 0.053399,0.025977 0.1057589,0.053806 0.1574863,0.082493 0.8772887,-1.0035122 1.5265687,-1.9591823 1.5265687,-1.9591823 0,0 -0.609344,0.9821888 -1.1694912,2.1920687 0.050056,0.037813 0.098982,0.076846 0.1465532,0.1174145 l 1.835488,-2.2356643 0.06257,0.056742 -1.449136,1.8256848 1.587648,-1.6998674 0.0656,0.059227 -1.717667,1.9063707 1.845156,-1.783309 0.06162,0.063744 -1.643487,1.645836 1.773958,-1.5118416 0.05895,0.060492 -2.171061,1.9131923 0.0013,0.00127 c 0.0379,0.04224 0.07436,0.085836 0.110186,0.1301544 1.192171,-0.6027941 2.155521,-1.2479188 2.155521,-1.2479188 0,0 -0.936109,0.6846996 -1.910527,1.599078 0.0267,0.044589 0.06984,0.1206221 0.09446,0.1665669 l 2.539884,-1.3829522 0.03668,0.076123 -2.02749,1.1498851 2.108808,-0.9813756 0.03863,0.079511 -1.964151,0.9571609 0.03768,0.013146 1.998622,-0.8084388 0.03325,0.082131 -1.857806,0.7901874 0.03479,0.014366 1.237889,-0.4126901 0.18658,-0.1301996 0.06194,0.0473 0.407404,-0.1358015 0.03203,0.078111 -0.352469,0.1240103 0.509233,0.3886108 0.163178,0.090941 C 13.36904,2.7407979 10.907266,0.7061252 7.9699611,0.7061252 c -2.9889423,0 -5.4854575,2.1067749 -6.08658,4.9162297 0.00773,-0.00375 0.015225,-0.00727 0.02295,-0.011068 l 0.074542,-0.033792 0.045809,-0.021324 0.8586754,-0.481404"
       style="fill:#f9ae0c;fill-opacity:1;fill-rule:nonzero;stroke:none;stroke-width:0.00451768"
       id="path50" /><path
       inkscape:connector-curvature="0"
       d="m 1.8481884,8.062896 c 0,0 0.9182185,-0.1833274 1.6846881,-0.1833274 2.0195385,0 4.8130911,1.1371 6.8400835,1.1371 1.486995,0 2.93726,-0.4079013 3.727628,-1.0026539 0.06171,-0.3518369 0.0941,-0.7136579 0.0941,-1.0832041 0,-0.5004686 -0.05945,-0.9869776 -0.170995,-1.4533377 L 13.178665,5.0062337 12.187125,5.7015499 11.52018,5.4418284 C 11.294386,5.555945 9.9013144,6.4875358 9.9013144,6.4875358 L 9.3666018,6.1005062 8.792992,5.9868865 8.0280584,5.4299921 7.1506346,6.0323796 c 0,0 -0.9789812,0.5684145 -1.0125928,0.5684145 -0.033747,0 -1.1811022,-0.9095446 -1.1811022,-0.9095446 L 4.4283258,5.1343551 C 4.3383336,5.1911875 3.9787715,5.3561732 3.9787715,5.3561732 L 3.960249,5.3610523 3.6123425,5.2534412 3.1897587,5.0293191 1.906331,5.6112866 c -0.00773,0.00379 -0.015225,0.00732 -0.02295,0.011068 -0.090263,0.4219062 -0.1381958,0.859579 -0.1381958,1.3084557 0,0.3866682 0.035554,0.7650239 0.1030031,1.1320854"
       style="fill:#19336e;fill-opacity:1;fill-rule:nonzero;stroke:none;stroke-width:0.00451768"
       id="path52" /></g></svg>