<?xml version="1.0" standalone="no"?>
<!DOCTYPE svg PUBLIC "-//W3C//DTD SVG 20010904//EN"
 "http://www.w3.org/TR/2001/REC-SVG-20010904/DTD/svg10.dtd">
<svg version="1.0" xmlns="http://www.w3.org/2000/svg"
 width="700.000000pt" height="700.000000pt" viewBox="0 0 700.000000 700.000000"
 preserveAspectRatio="xMidYMid meet">
<metadata>
Created by potrace 1.11, written by Peter Selinger 2001-2013
</metadata>
<g transform="translate(0.000000,700.000000) scale(0.100000,-0.100000)"
fill="#000000" stroke="none">
<path d="M3377 5834 c-1 -1 -54 -4 -117 -8 -63 -4 -130 -9 -148 -11 -128 -17
-200 -27 -267 -40 -52 -9 -216 -48 -264 -62 -29 -8 -59 -16 -65 -17 -39 -7
-255 -85 -368 -132 -321 -134 -622 -317 -889 -540 -102 -86 -307 -285 -385
-375 -21 -25 -51 -59 -66 -76 -113 -131 -252 -335 -371 -543 -167 -293 -320
-724 -382 -1075 -3 -16 -7 -41 -9 -55 -11 -57 -27 -189 -33 -269 -14 -169 -6
-648 11 -702 3 -8 7 -39 10 -69 17 -160 19 -163 53 -156 39 9 64 13 109 20 22
4 66 11 99 16 33 5 78 11 100 14 126 14 162 19 179 22 17 3 46 6 211 19 64 5
342 6 420 1 121 -8 231 -18 290 -26 33 -5 83 -12 110 -15 28 -3 59 -8 70 -9
11 -2 47 -9 80 -15 33 -6 78 -13 100 -16 22 -4 51 -8 65 -10 41 -7 308 -62
405 -84 50 -11 101 -22 115 -24 14 -3 63 -14 110 -26 106 -25 356 -84 475
-111 50 -11 128 -29 175 -40 83 -20 241 -56 290 -66 13 -3 56 -12 95 -21 97
-21 156 -33 185 -39 14 -2 36 -7 50 -9 14 -3 39 -8 55 -11 17 -2 77 -13 135
-24 142 -26 150 -27 216 -35 33 -4 67 -9 76 -11 9 -1 48 -6 85 -9 37 -4 79 -8
93 -11 133 -22 680 -22 821 1 13 2 47 6 74 9 94 11 155 20 245 36 30 5 73 12
95 15 22 4 48 8 57 11 17 5 44 11 88 20 147 30 460 124 565 169 17 7 55 23 85
36 140 60 415 216 434 247 5 9 9 32 22 127 3 22 7 51 10 65 19 102 25 538 10
725 -4 55 -9 102 -11 105 -1 3 -6 30 -9 61 -4 31 -8 66 -11 77 -2 11 -6 37
-10 58 -10 64 -14 85 -40 194 -14 58 -27 116 -31 130 -3 13 -26 85 -50 160
-107 319 -238 586 -419 854 -110 163 -102 153 -175 242 -98 120 -115 139 -245
269 -151 152 -197 193 -318 288 -332 260 -666 441 -1047 568 -128 42 -348 103
-420 115 -14 3 -47 9 -75 14 -27 5 -67 12 -87 15 -21 3 -53 7 -70 10 -124 18
-268 28 -436 29 -84 1 -154 1 -155 0z"/>
</g>
</svg>
